<?xml version="1.0" encoding="UTF-8" standalone="no"?>
<svg width="50px" height="50px" viewBox="0 0 50 50" version="1.1" xmlns="http://www.w3.org/2000/svg" xmlns:xlink="http://www.w3.org/1999/xlink" xmlns:sketch="http://www.bohemiancoding.com/sketch/ns">
    <title>Artboard 1</title>
    <description>Created with Sketch (http://www.bohemiancoding.com/sketch)</description>
    <defs></defs>
    <g id="Page-1" stroke="none" stroke-width="1" fill="none" fill-rule="evenodd" sketch:type="MSPage">
        <g id="Artboard-1" sketch:type="MSArtboardGroup">
            <g id="noun_project_12709" sketch:type="MSLayerGroup" transform="translate(15.000000, 2.000000)" fill="#000000">
                <path d="M11,12 C4.98869644,18.9013304 1,23.1304508 1,23.1304508 L6.15405652,24 L11,12 L11,12 L11,12 L11,12 Z M11,12" id="Shape" sketch:type="MSShapeGroup"></path>
                <path d="M20.7210041,15.9498365 C20.3311325,15.5512008 19.6752528,15.5294505 19.2570269,15.9034835 L16.9170511,17.9918639 L17.0808345,14.6255673 C17.1065772,14.0793151 16.664847,13.6157852 16.0936571,13.5908259 C15.9966556,13.5869038 15.9011464,13.597244 15.8116065,13.6168549 L12.888129,12.5703471 L13.4682729,11.05817 C13.6809302,11.7046159 14.1648187,12.267983 14.8580066,12.5774783 C16.169393,13.1668744 17.7326102,12.6263272 18.348197,11.3726572 C18.9637838,10.1193437 18.3993094,8.62570773 17.0868038,8.03702478 C16.245875,7.66049589 15.3030945,7.74678376 14.571479,8.18713715 L16.8196764,2.33097188 C17.0177834,1.81787995 16.741329,1.24880788 16.2044628,1.06089999 C15.6672234,0.872635545 15.0717831,1.13542133 14.8755415,1.64851326 L10.6447817,12.6676883 C10.6380662,12.6851599 10.6320968,12.7033445 10.6272468,12.720816 L6.97289995,21.0697024 L6.98595785,21.076477 C6.94454565,21.1481459 6.90686428,21.2215975 6.87664457,21.3011107 L2.09185662,34.0118133 C1.80197122,34.784482 2.22094329,35.6348811 3.02866773,35.9112162 C3.20215127,35.9718316 3.37973872,36 3.55434151,36 C4.19119399,36 4.7881266,35.6224014 5.01645332,35.0169601 L9.75572516,22.4257056 L10.8413963,22.9534165 L8.40926904,26.9354948 C7.97574673,27.6432693 8.22608535,28.5532141 8.96665487,28.9668254 C9.21326265,29.1044581 9.48262849,29.1697088 9.74789042,29.1697088 C10.2828913,29.1697088 10.8025957,28.9054968 11.091735,28.4334095 L14.6196067,22.6599664 C15.0527559,21.9518354 14.8020442,21.0422471 14.0618478,20.6286359 C13.945819,20.5637417 13.824194,20.5173887 13.7003305,20.4842285 L14.8348755,18.1754931 L14.7304123,20.3301939 C14.711012,20.7327518 14.949412,21.1057151 15.3303296,21.2747252 C15.4694895,21.3353406 15.6183496,21.3660049 15.764598,21.3660049 C16.0220252,21.3660049 16.2764678,21.2747252 16.4719632,21.099297 L20.6717572,17.3486271 C21.08961,16.9756638 21.1112488,16.3495419 20.7210041,15.9498365 C20.7210041,15.9498365 21.1112488,16.3495419 20.7210041,15.9498365 L20.7210041,15.9498365 L20.7210041,15.9498365 Z M20.7210041,15.9498365" id="Shape" sketch:type="MSShapeGroup"></path>
            </g>
            <text id="GrubHero" fill="#F48845" sketch:type="MSTextLayer" font-family="Exo" font-size="10" font-weight="bold">
                <tspan x="4" y="47">Grub</tspan>
                <tspan x="25.37" y="47" fill="#000000">Hero</tspan>
            </text>
        </g>
    </g>
</svg>