<?xml version="1.0" encoding="utf-8"?>
<!-- Generator: Adobe Illustrator 16.0.0, SVG Export Plug-In . SVG Version: 6.00 Build 0)  -->
<!DOCTYPE svg PUBLIC "-//W3C//DTD SVG 1.1//EN" "http://www.w3.org/Graphics/SVG/1.1/DTD/svg11.dtd">
<svg version="1.1" xmlns="http://www.w3.org/2000/svg" xmlns:xlink="http://www.w3.org/1999/xlink" x="0px" y="0px" width="50px"
	 height="50px" viewBox="0 0 50 50" enable-background="new 0 0 50 50" xml:space="preserve">
<g id="bg">
	<path fill="#F48845" d="M47.625,34.619c0,7.183-5.357,13.006-11.967,13.006H14.342c-6.609,0-11.967-5.823-11.967-13.006V15.381
		c0-7.183,5.358-13.006,11.967-13.006h21.316c6.609,0,11.967,5.823,11.967,13.006V34.619z"/>
</g>
<g id="fg" xmlns:sketch="http://www.bohemiancoding.com/sketch/ns">
	<title>Artboard 1</title>
	<description>Created with Sketch (http://www.bohemiancoding.com/sketch)</description>
	<g>
		<path id="Shape" sketch:type="MSShapeGroup" d="M24,15.368c-8.33,9.563-13.857,15.424-13.857,15.424l7.143,1.204L24,15.368
			L24,15.368L24,15.368L24,15.368z"/>
		<path id="Shape_1_" sketch:type="MSShapeGroup" d="M37.47,20.84c-0.54-0.552-1.448-0.581-2.027-0.063l-3.243,2.895l0.228-4.666
			c0.035-0.756-0.577-1.399-1.368-1.433c-0.135-0.005-0.267,0.009-0.391,0.037l-4.051-1.451l0.804-2.095
			c0.296,0.896,0.965,1.675,1.925,2.105c1.818,0.816,3.983,0.067,4.836-1.67c0.854-1.737,0.072-3.807-1.747-4.623
			c-1.165-0.522-2.472-0.404-3.485,0.208l3.116-8.115c0.273-0.71-0.109-1.5-0.853-1.761c-0.746-0.26-1.57,0.103-1.843,0.815
			l-5.863,15.269c-0.008,0.025-0.016,0.049-0.024,0.073l-5.064,11.57l0.019,0.009c-0.058,0.1-0.109,0.201-0.152,0.311l-6.63,17.613
			c-0.402,1.073,0.179,2.25,1.298,2.633c0.24,0.084,0.486,0.123,0.728,0.123c0.883,0,1.71-0.522,2.027-1.361l6.567-17.448
			l1.505,0.73l-3.371,5.519c-0.601,0.979-0.253,2.24,0.773,2.814c0.342,0.191,0.714,0.282,1.083,0.282
			c0.741,0,1.462-0.368,1.862-1.021l4.888-8c0.601-0.982,0.254-2.242-0.771-2.814c-0.162-0.091-0.331-0.154-0.502-0.2l1.572-3.199
			l-0.146,2.984c-0.026,0.559,0.303,1.075,0.831,1.311c0.194,0.084,0.399,0.127,0.603,0.127c0.355,0,0.709-0.127,0.98-0.37
			l5.819-5.198C37.981,22.263,38.011,21.396,37.47,20.84C37.47,20.84,38.011,21.396,37.47,20.84L37.47,20.84L37.47,20.84z"/>
	</g>
	<text transform="matrix(1 0 0 1 27.8867 47)" fill="#F48845" font-family="'Arial-BoldMT'" font-size="10"> </text>
</g>
</svg>
